HIERARCHY
ROOT hip
{
	OFFSET 0.000000 0.000000 0.000000
	CHANNELS 6 Xposition Yposition Zposition Xrotation Zrotation Yrotation 
	JOINT abdomen
	{
		OFFSET 0.000000 3.422050 0.000000
		CHANNELS 3 Xrotation Zrotation Yrotation 
		JOINT chest
		{
			OFFSET 0.000000 8.486693 -0.684411
			CHANNELS 3 Xrotation Zrotation Yrotation 
			JOINT neck
			{
				OFFSET 0.000000 10.266162 -0.273764
				CHANNELS 3 Xrotation Zrotation Yrotation 
				JOINT head
				{
					OFFSET 0.000000 3.148285 0.000000
					CHANNELS 3 Xrotation Zrotation Yrotation 
					End Site
					{
						OFFSET 0.000000 3.148289 0.000000
					}
				}
			}
			JOINT lCollar
			{
				OFFSET 3.422053 6.707223 -0.821293
				CHANNELS 3 Yrotation Zrotation Xrotation 
				JOINT lShldr
				{
					OFFSET 3.285171 0.000000 0.000000
					CHANNELS 3 Zrotation Yrotation Xrotation 
					JOINT lForeArm
					{
						OFFSET 10.129278 0.000000 0.000000
						CHANNELS 3 Yrotation Zrotation Xrotation 
						JOINT lHand
						{
							OFFSET 8.486692 0.000000 0.000000
							CHANNELS 3 Zrotation Yrotation Xrotation 
							End Site
							{
								OFFSET 4.106464 0.000000 0.000000
							}
						}
					}
				}
			}
			JOINT rCollar
			{
				OFFSET -3.558935 6.707223 -0.821293
				CHANNELS 3 Yrotation Zrotation Xrotation 
				JOINT rShldr
				{
					OFFSET -3.148289 0.000000 0.000000
					CHANNELS 3 Zrotation Yrotation Xrotation 
					JOINT rForeArm
					{
						OFFSET -10.266159 0.000000 0.000000
						CHANNELS 3 Yrotation Zrotation Xrotation 
						JOINT rHand
						{
							OFFSET -8.349810 0.000000 0.000000
							CHANNELS 3 Zrotation Yrotation Xrotation 
							End Site
							{
								OFFSET -4.106464 0.000000 0.000000
							}
						}
					}
				}
			}
		}
	}
	JOINT lThigh
	{
		OFFSET 5.338403 -1.642589 1.368821
		CHANNELS 3 Xrotation Zrotation Yrotation 
		JOINT lShin
		{
			OFFSET -2.053232 -20.121670 0.000000
			CHANNELS 3 Xrotation Zrotation Yrotation 
			JOINT lFoot
			{
				OFFSET 0.000000 -19.300380 -1.231939
				CHANNELS 3 Xrotation Yrotation Zrotation 
				End Site
				{
					OFFSET 0.000000 -2.463878 4.653993
				}
			}
		}
	}
	JOINT rThigh
	{
		OFFSET -5.338403 -1.642589 1.368821
		CHANNELS 3 Xrotation Zrotation Yrotation 
		JOINT rShin
		{
			OFFSET 2.053232 -20.121670 0.000000
			CHANNELS 3 Xrotation Zrotation Yrotation 
			JOINT rFoot
			{
				OFFSET 0.000000 -19.300380 -1.231939
				CHANNELS 3 Xrotation Yrotation Zrotation 
				End Site
				{
					OFFSET 0.000000 -2.463878 4.653993
				}
			}
		}
	}
}
MOTION
Frames: 16
Frame Time: 0.049897
0.000000 43.528500 0.000000 0.000000 0.000000 0.000000 0.000000 0.000000 0.000000 0.000000 0.000000 0.000000 0.000000 0.000000 0.000000 0.000000 0.000000 0.000000 0.000000 0.000000 0.000000 0.000000 0.000000 0.000000 0.000000 0.000000 0.000000 0.000000 0.000000 0.000000 0.000000 0.000000 0.000000 0.000000 0.000000 0.000000 0.000000 0.000000 0.000000 0.000000 0.000000 0.000000 0.000000 0.000000 0.000000 0.000000 0.000000 0.000000 0.000000 0.000000 0.000000 0.000000 0.000000 0.000000 0.000000 0.000000 0.000000 0.000000 0.000000 0.000000 
0.000000 17.320885 0.000000 -89.996941 0.254758 -179.732864 -9.817550 -2.061341 -1.418543 -28.685194 -5.839724 0.910703 0.124146 0.000000 0.000000 0.033225 0.000000 0.000000 15.738402 -37.982742 -1.865930 -22.955681 -39.669628 25.453070 -68.872116 16.525288 58.564358 -6.886406 -0.008204 -52.706501 21.998129 16.999308 -3.001710 2.998212 50.999722 7.997192 6.835866 0.514916 -0.030750 -15.002422 -5.003859 -38.000988 -124.947449 22.673622 1.938519 133.419571 11.515879 -51.539684 36.453365 11.661241 8.852071 -124.941879 -22.697577 -1.932154 133.446960 -11.535858 51.519962 44.097027 -10.151967 -6.126956 
0.000000 17.320885 0.000000 -89.996941 0.254758 -179.732864 -9.817550 -2.061341 -1.418543 -28.685194 -5.839724 0.910703 0.393456 -0.260197 0.059097 0.183014 0.000000 0.000000 15.738402 -37.982742 -1.865931 -23.094820 -39.361645 25.541634 -69.210014 16.317650 58.298759 -6.450305 0.168973 -52.399780 21.998129 16.999308 -3.001710 3.546016 50.703102 7.989749 7.502397 0.394717 0.088559 -15.302647 -5.003843 -38.000969 -124.947449 22.673622 1.938519 133.419571 11.515879 -51.539684 36.453365 11.661241 8.852071 -124.941879 -22.697577 -1.932154 133.446960 -11.535858 51.519962 44.097027 -10.151967 -6.126956 
0.000000 17.320885 0.000000 -89.996941 0.254758 -179.732864 -9.817550 -2.061341 -1.418543 -28.685194 -5.839724 0.910703 0.662781 -0.520935 0.117030 0.332826 0.000000 0.000000 15.738402 -37.982742 -1.865930 -23.232882 -39.053223 25.628942 -69.549469 16.110970 58.031460 -6.011911 0.344340 -52.090767 21.998129 16.999308 -3.001710 4.092595 50.405384 7.977854 8.172453 0.275334 0.209855 -15.603117 -5.003826 -38.000957 -124.947449 22.673622 1.938520 133.419571 11.515878 -51.539692 36.453365 11.661241 8.852071 -124.941879 -22.697577 -1.932154 133.446960 -11.535858 51.519962 44.097027 -10.151967 -6.126956 
0.000000 17.320885 0.000000 -89.996941 0.254758 -179.732864 -9.817551 -2.061342 -1.418543 -28.685196 -5.839724 0.910703 0.932125 -0.782203 0.173796 0.482661 0.000000 0.000000 15.738402 -37.982742 -1.865931 -23.369865 -38.744324 25.714998 -69.890457 15.905272 57.762451 -5.571238 0.517856 -51.779480 21.998129 16.999308 -3.001710 4.637980 50.106579 7.961530 8.846012 0.156808 0.333137 -15.903823 -5.003808 -38.000938 -124.947449 22.673622 1.938519 133.419571 11.515879 -51.539684 36.453365 11.661241 8.852071 -124.941895 -22.697578 -1.932152 133.446960 -11.535858 51.519966 44.097034 -10.151968 -6.126957 
0.000000 17.320885 0.000000 -89.996941 0.254758 -179.732864 -9.817551 -2.061341 -1.418543 -28.685194 -5.839724 0.910703 1.201494 -1.043991 0.229390 0.632518 0.000000 0.000000 15.738402 -37.982742 -1.865931 -23.505796 -38.434982 25.799818 -70.232994 15.700586 57.491745 -5.128296 0.689477 -51.465927 21.998133 16.999310 -3.001710 5.182206 49.806732 7.940812 9.523055 0.039182 0.458404 -16.204775 -5.003793 -38.000923 -124.947449 22.673622 1.938520 133.419571 11.515880 -51.539688 36.453365 11.661241 8.852071 -124.941879 -22.697577 -1.932154 133.446960 -11.535856 51.519966 44.097034 -10.151968 -6.126956 
0.000000 17.320885 0.000000 -89.996941 0.254758 -179.732864 -9.817550 -2.061341 -1.418543 -28.685194 -5.839724 0.910703 1.470891 -1.306288 0.283810 0.782398 0.000000 0.000000 15.738405 -37.982746 -1.865929 -23.640692 -38.125210 25.883425 -70.577072 15.496953 57.219345 -4.683096 0.859160 -51.150101 21.998131 16.999310 -3.001710 5.725307 49.505901 7.915737 10.203559 -0.077502 0.585656 -16.505960 -5.003777 -38.000912 -124.947449 22.673624 1.938521 133.419571 11.515878 -51.539692 36.453365 11.661241 8.852071 -124.941879 -22.697577 -1.932154 133.446960 -11.535858 51.519962 44.097027 -10.151967 -6.126956 
0.000000 17.320885 0.000000 -89.996941 0.254758 -179.732864 -9.817550 -2.061341 -1.418542 -28.685194 -5.839723 0.910702 1.740321 -1.569084 0.337051 0.932298 0.000000 0.000000 15.738399 -37.982735 -1.865930 -23.774569 -37.814991 25.965828 -70.922676 15.294391 56.945267 -4.235656 1.026861 -50.832043 21.998129 16.999308 -3.001710 6.267311 49.204090 7.886330 10.887505 -0.193200 0.714889 -16.807369 -5.003761 -38.000900 -124.947449 22.673620 1.938519 133.419571 11.515879 -51.539684 36.453362 11.661241 8.852071 -124.941864 -22.697575 -1.932154 133.446960 -11.535856 51.519962 44.097019 -10.151966 -6.126956 
0.000000 17.320885 0.000000 -89.996933 0.254758 -179.732864 -9.817549 -2.061341 -1.418542 -28.685194 -5.839724 0.910703 2.009789 -1.832368 0.389109 1.082219 0.000000 0.000000 15.738402 -37.982742 -1.865930 -23.907440 -37.504353 26.047047 -71.269821 15.092934 56.669495 -3.785986 1.192538 -50.511745 21.998127 16.999308 -3.001710 6.808254 48.901371 7.852628 11.574867 -0.307869 0.846099 -17.109005 -5.003743 -38.000877 -124.947441 22.673618 1.938519 133.419571 11.515880 -51.539684 36.453358 11.661241 8.852071 -124.941879 -22.697577 -1.932154 133.446960 -11.535859 51.519962 44.097019 -10.151966 -6.126956 
0.000000 17.320885 0.000000 -89.996941 0.254758 -179.732864 -9.817550 -2.061341 -1.418542 -28.685194 -5.839723 0.910703 2.279300 -2.096129 0.439980 1.232161 0.000000 0.000000 15.738402 -37.982742 -1.865930 -24.039318 -37.193287 26.127085 -71.618477 14.892605 56.392048 -3.334106 1.356148 -50.189247 21.998129 16.999308 -3.001710 7.348166 48.597782 7.814665 12.265615 -0.421464 0.979282 -17.410864 -5.003726 -38.000866 -124.947449 22.673622 1.938519 133.419571 11.515877 -51.539684 36.453365 11.661241 8.852071 -124.941879 -22.697577 -1.932154 133.446960 -11.535858 51.519962 44.097027 -10.151966 -6.126956 
0.000000 17.320885 0.000000 -89.996941 0.254758 -179.732864 -9.817550 -2.061341 -1.418543 -28.685194 -5.839724 0.910703 2.548860 -2.360356 0.489661 1.382123 0.000000 0.000000 15.738399 -37.982742 -1.865931 -24.170237 -36.881824 26.205980 -71.968658 14.693439 56.112938 -2.880029 1.517647 -49.864540 21.998129 16.999308 -3.001710 7.887076 48.293350 7.772472 12.959729 -0.533943 1.114431 -17.712942 -5.003710 -38.000858 -124.947449 22.673620 1.938519 133.419571 11.515879 -51.539684 36.453365 11.661241 8.852071 -124.941879 -22.697577 -1.932154 133.446960 -11.535858 51.519962 44.097027 -10.151966 -6.126956 
0.000000 17.320885 0.000000 -89.996941 0.254758 -179.732864 -9.817550 -2.061341 -1.418543 -28.685194 -5.839723 0.910703 2.818472 -2.625037 0.538148 1.532103 0.000000 0.000000 15.738402 -37.982742 -1.865930 -24.300184 -36.569935 26.283720 -72.320343 14.495466 55.832172 -2.423775 1.676993 -49.537655 21.998129 16.999308 -3.001710 8.425018 47.988136 7.726084 13.657180 -0.645259 1.251540 -18.015228 -5.003690 -38.000835 -124.947449 22.673620 1.938519 133.419571 11.515879 -51.539684 36.453365 11.661241 8.852071 -124.941879 -22.697577 -1.932154 133.446960 -11.535858 51.519962 44.097027 -10.151967 -6.126956 
0.000000 17.320885 0.000000 -89.996941 0.254758 -179.732864 -9.817550 -2.061341 -1.418543 -28.685194 -5.839724 0.910703 3.088144 -2.890163 0.585436 1.682103 0.000000 0.000000 15.738402 -37.982742 -1.865930 -24.429207 -36.257668 26.360346 -72.673538 14.298714 55.549736 -1.965363 1.834144 -49.208614 21.998129 16.999308 -3.001710 8.962017 47.682167 7.675530 14.357934 -0.755370 1.390599 -18.317732 -5.003675 -38.000824 -124.947449 22.673622 1.938519 133.419571 11.515879 -51.539684 36.453365 11.661241 8.852071 -124.941879 -22.697577 -1.932154 133.446960 -11.535858 51.519962 44.097027 -10.151967 -6.126956 
0.000000 17.320885 0.000000 -89.996941 0.254758 -179.732864 -9.817550 -2.061342 -1.418542 -28.685194 -5.839724 0.910703 3.357878 -3.155722 0.631522 1.832121 0.000000 0.000000 15.738402 -37.982742 -1.865930 -24.557295 -35.945000 26.435852 -73.028221 14.103207 55.265663 -1.504812 1.989055 -48.877422 21.998131 16.999308 -3.001710 9.498099 47.375469 7.620843 15.061955 -0.864230 1.531600 -18.620438 -5.003656 -38.000805 -124.947449 22.673622 1.938519 133.419571 11.515879 -51.539684 36.453365 11.661241 8.852071 -124.941895 -22.697578 -1.932153 133.446960 -11.535858 51.519962 44.097027 -10.151967 -6.126956 
0.000000 17.320885 0.000000 -89.996941 0.254758 -179.732864 -9.817551 -2.061341 -1.418543 -28.685194 -5.839724 0.910703 3.627681 -3.421702 0.676402 1.982157 0.000000 0.000000 15.738402 -37.982742 -1.865930 -24.684481 -35.631958 26.510265 -73.384392 13.908984 54.979958 -1.042141 2.141685 -48.544117 21.998129 16.999308 -3.001710 10.033305 47.068150 7.562068 15.769221 -0.971794 1.674531 -18.923347 -5.003640 -38.000797 -124.947449 22.673622 1.938519 133.419571 11.515877 -51.539688 36.453365 11.661241 8.852071 -124.941879 -22.697577 -1.932154 133.446960 -11.535858 51.519962 44.097027 -10.151967 -6.126957 
0.000000 17.320885 0.000000 -89.996948 0.254758 -179.732864 -9.817551 -2.061341 -1.418543 -28.685194 -5.839724 0.910703 3.897558 -3.688093 0.720072 2.132210 0.000000 0.000000 15.738402 -37.982742 -1.865930 -24.810770 -35.318539 26.583595 -73.742043 13.716071 54.692616 -0.577375 2.291992 -48.208694 21.998129 16.999308 -3.001710 10.567647 46.760166 7.499220 16.479687 -1.078017 1.819381 -19.226458 -5.003623 -38.000782 -124.947449 22.673622 1.938520 133.419571 11.515878 -51.539692 36.453369 11.661241 8.852071 -124.941879 -22.697577 -1.932153 133.446960 -11.535858 51.519962 44.097031 -10.151967 -6.126957 
